<?xml version="1.0" encoding="UTF-8" standalone="no"?>
<!-- Created with Inkscape (http://www.inkscape.org/) -->

<svg
   xmlns:dc="http://purl.org/dc/elements/1.1/"
   xmlns:cc="http://creativecommons.org/ns#"
   xmlns:rdf="http://www.w3.org/1999/02/22-rdf-syntax-ns#"
   xmlns:svg="http://www.w3.org/2000/svg"
   xmlns="http://www.w3.org/2000/svg"
   xmlns:sodipodi="http://sodipodi.sourceforge.net/DTD/sodipodi-0.dtd"
   xmlns:inkscape="http://www.inkscape.org/namespaces/inkscape"
   width="540"
   height="125"
   id="svg2"
   version="1.1"
   inkscape:version="0.48.4 r9939"
   sodipodi:docname="disk_layers.svg">
  <sodipodi:namedview
     id="base"
     pagecolor="#ffffff"
     bordercolor="#666666"
     borderopacity="1.0"
     inkscape:pageopacity="0.0"
     inkscape:pageshadow="2"
     inkscape:zoom="0.7"
     inkscape:cx="97.461973"
     inkscape:cy="77.142857"
     inkscape:document-units="px"
     inkscape:current-layer="layer1"
     showgrid="false"
     inkscape:window-width="1021"
     inkscape:window-height="1014"
     inkscape:window-x="85"
     inkscape:window-y="36"
     inkscape:window-maximized="0"
     showguides="true"
     inkscape:guide-bbox="true" />
  <defs
     id="defs4">
    <marker
       inkscape:stockid="DotL"
       orient="auto"
       refY="0"
       refX="0"
       id="DotL"
       style="overflow:visible">
      <path
         id="path4006"
         d="m -2.5,-1 c 0,2.76 -2.24,5 -5,5 -2.76,0 -5,-2.24 -5,-5 0,-2.76 2.24,-5 5,-5 2.76,0 5,2.24 5,5 z"
         style="fill-rule:evenodd;stroke:#000000;stroke-width:1pt"
         transform="matrix(0.8,0,0,0.8,5.92,0.8)"
         inkscape:connector-curvature="0" />
    </marker>
    <marker
       inkscape:stockid="DotM"
       orient="auto"
       refY="0"
       refX="0"
       id="DotM"
       style="overflow:visible">
      <path
         id="path4009"
         d="m -2.5,-1 c 0,2.76 -2.24,5 -5,5 -2.76,0 -5,-2.24 -5,-5 0,-2.76 2.24,-5 5,-5 2.76,0 5,2.24 5,5 z"
         style="fill-rule:evenodd;stroke:#000000;stroke-width:1pt"
         transform="matrix(0.4,0,0,0.4,2.96,0.4)"
         inkscape:connector-curvature="0" />
    </marker>
    <marker
       inkscape:stockid="Arrow1Lend"
       orient="auto"
       refY="0"
       refX="0"
       id="Arrow1Lend"
       style="overflow:visible">
      <path
         id="path3948"
         d="M 0,0 5,-5 -12.5,0 5,5 0,0 z"
         style="fill-rule:evenodd;stroke:#000000;stroke-width:1pt"
         transform="matrix(-0.8,0,0,-0.8,-10,0)"
         inkscape:connector-curvature="0" />
    </marker>
  </defs>
  <metadata
     id="metadata7">
    <rdf:RDF>
      <cc:Work
         rdf:about="">
        <dc:format>image/svg+xml</dc:format>
        <dc:type
           rdf:resource="http://purl.org/dc/dcmitype/StillImage" />
        <dc:title />
      </cc:Work>
    </rdf:RDF>
  </metadata>
  <g
     inkscape:label="Layer 1"
     inkscape:groupmode="layer"
     id="layer1"
     transform="translate(0,-927.36218)">
    <rect
       style="opacity:1;fill:#cccccc;fill-opacity:1;stroke:#000000;stroke-width:2;stroke-miterlimit:4;stroke-opacity:1;stroke-dasharray:none;stroke-dashoffset:0"
       id="rect2985"
       width="427.14285"
       height="41.42857"
       x="6.5914431"
       y="954.34875" />
    <rect
       y="996.34882"
       x="6.5914431"
       height="41.42857"
       width="427.14285"
       id="rect3755"
       style="opacity:1;fill:#cccccc;fill-opacity:1;stroke:#000000;stroke-width:2;stroke-miterlimit:4;stroke-opacity:1;stroke-dasharray:none;stroke-dashoffset:0" />
    <path
       style="fill:none;stroke:#000000;stroke-width:1px;stroke-linecap:butt;stroke-linejoin:miter;stroke-opacity:1;marker-start:url(#DotL);marker-mid:none;marker-end:url(#Arrow1Lend)"
       d="m 224.49213,1017.5054 0,-41.41634"
       id="path3759"
       inkscape:connector-curvature="0" />
    <path
       inkscape:connector-curvature="0"
       id="path4385"
       d="m 252.49213,976.08906 0,41.41634"
       style="fill:none;stroke:#000000;stroke-width:1px;stroke-linecap:butt;stroke-linejoin:miter;stroke-opacity:1;marker-start:url(#DotL);marker-mid:none;marker-end:url(#Arrow1Lend)" />
    <g
       id="g4393"
       transform="matrix(0.97919044,0,0,1.3789432,144.4611,-169.85763)">
      <path
         inkscape:connector-curvature="0"
         id="path4387"
         d="m 163.64471,832.14893 0,27.27412"
         style="fill:none;stroke:#000000;stroke-width:1px;stroke-linecap:butt;stroke-linejoin:miter;stroke-opacity:1" />
      <path
         inkscape:connector-curvature="0"
         id="path4389"
         d="m 155.56349,832.55918 16.16244,0"
         style="fill:none;stroke:#000000;stroke-width:1px;stroke-linecap:butt;stroke-linejoin:miter;stroke-opacity:1" />
      <path
         style="fill:none;stroke:#000000;stroke-width:1px;stroke-linecap:butt;stroke-linejoin:miter;stroke-opacity:1"
         d="m 155.56349,858.89847 16.16244,0"
         id="path4391"
         inkscape:connector-curvature="0" />
    </g>
    <g
       transform="matrix(0.7283654,0,0,0.7283654,98.065443,766.50934)"
       id="g4413">
      <g
         style="font-style:normal;font-variant:normal;font-weight:normal;font-stretch:normal;letter-spacing:normal;word-spacing:normal;text-anchor:start;fill:none;stroke:#000000;stroke-linecap:butt;stroke-linejoin:miter;stroke-miterlimit:10.43299961;stroke-opacity:1;stroke-dasharray:none;stroke-dashoffset:0"
         id="content"
         transform="matrix(1.0629921,0,0,-1.0629921,-186.02362,789.27165)"
         xml:space="preserve"
         stroke-miterlimit="10.433"
         font-style="normal"
         font-variant="normal"
         font-weight="normal"
         font-stretch="normal"
         font-size-adjust="none"
         letter-spacing="normal"
         word-spacing="normal"><path
           style="fill:#000000;stroke-width:0"
           inkscape:connector-curvature="0"
           d="m 473.3,420.75 0.19,-0.5 0.2,-0.51 0.39,-1.05 0.4,-1.08 0.39,-1.1 0.39,-1.1 0.39,-1.09 0.37,-1.07 0.19,-0.53 0.18,-0.51 0.17,-0.5 0.18,-0.49 0.16,-0.47 0.17,-0.45 0.16,-0.44 0.15,-0.42 0.15,-0.39 0.14,-0.37 0.13,-0.35 0.13,-0.32 0.12,-0.29 0.12,-0.26 0.1,-0.23 0.1,-0.2 0.09,-0.16 0.08,-0.12 c 0.79,-1.1 1.29,-1.1 2.64,-1.1 h 1.09 c 0.5,0.05 0.55,0.35 0.55,0.5 0,0.14 -0.1,0.25 -0.25,0.46 -0.49,0.54 -0.8,1.28 -1.14,2.28 l -10.16,28.34 c -1.05,2.89 -3.75,3.55 -6.08,3.55 -0.25,0 -0.9,0 -0.9,-0.55 0,-0.41 0.4,-0.5 0.45,-0.5 1.64,-0.3 1.98,-0.59 3.23,-3.98 l 4.83,-13.55 -13.75,-13.66 c -0.59,-0.59 -0.89,-0.9 -0.89,-1.54 0,-0.85 0.7,-1.44 1.5,-1.44 0.8,0 1.23,0.55 1.64,1.05 z"
           id="path4416" /></g>    </g>
    <g
       id="g4452"
       transform="matrix(0.7283654,0,0,0.7283654,128.89318,724.63658)">
      <g
         word-spacing="normal"
         letter-spacing="normal"
         font-size-adjust="none"
         font-stretch="normal"
         font-weight="normal"
         font-variant="normal"
         font-style="normal"
         stroke-miterlimit="10.433"
         xml:space="preserve"
         transform="matrix(1.0629921,0,0,-1.0629921,-186.02362,789.27165)"
         id="g4454"
         style="font-style:normal;font-variant:normal;font-weight:normal;font-stretch:normal;letter-spacing:normal;word-spacing:normal;text-anchor:start;fill:none;stroke:#000000;stroke-linecap:butt;stroke-linejoin:miter;stroke-miterlimit:10.43299961;stroke-opacity:1;stroke-dasharray:none;stroke-dashoffset:0"><path
           id="path4456"
           d="m 477.54,440.98 -0.04,0.06 -0.03,0.06 -0.03,0.05 -0.02,0.05 -0.03,0.05 -0.03,0.05 -0.03,0.05 -0.02,0.04 -0.03,0.04 -0.03,0.04 -0.02,0.04 -0.03,0.03 -0.03,0.04 -0.03,0.03 -0.03,0.03 -0.03,0.03 -0.03,0.02 -0.04,0.03 -0.04,0.02 -0.03,0.02 -0.05,0.02 -0.04,0.01 -0.05,0.02 -0.04,0.01 -0.06,0.01 -0.05,0.01 -0.06,0.01 -0.06,0.01 -0.07,0 -0.07,0.01 -0.07,0 -0.04,0 -0.04,0 c -0.85,0 -0.94,-0.25 -1.28,-0.89 l -0.32,-4.09 13.41,-26.91 h -26.86 l 13.45,26.91 0.32,4.09 -16.85,-33.78 c -0.25,-0.45 -0.25,-0.55 -0.25,-0.59 0,-0.41 0.3,-0.41 1.1,-0.41 h 34.58 c 0.79,0 1.09,0 1.09,0.41 0,0.04 0,0.14 -0.25,0.59 z"
           inkscape:connector-curvature="0"
           style="fill:#000000;stroke-width:0" /><path
           id="path4458"
           d="m 514.48,409 0.05,-0.19 0.06,-0.19 0.07,-0.18 0.08,-0.18 0.08,-0.17 0.09,-0.16 0.09,-0.16 0.1,-0.16 0.11,-0.15 0.11,-0.15 0.11,-0.14 0.13,-0.13 0.12,-0.13 0.14,-0.12 0.13,-0.12 0.15,-0.11 0.14,-0.11 0.16,-0.1 0.15,-0.09 0.16,-0.09 0.17,-0.08 0.17,-0.07 0.17,-0.07 0.17,-0.06 0.18,-0.06 0.19,-0.04 0.18,-0.05 0.19,-0.03 0.19,-0.02 0.2,-0.02 0.19,-0.01 0.2,-0.01 c 1.74,0 2.89,1.14 3.69,2.74 0.85,1.79 1.49,4.84 1.49,4.93 0,0.5 -0.44,0.5 -0.6,0.5 -0.5,0 -0.54,-0.2 -0.7,-0.9 -0.69,-2.78 -1.64,-6.17 -3.74,-6.17 -1.04,0 -1.53,0.65 -1.53,2.29 0,1.1 0.6,3.44 0.99,5.17 l 1.4,5.4 c 0.14,0.75 0.64,2.64 0.85,3.39 0.25,1.14 0.75,3.03 0.75,3.32 0,0.91 -0.71,1.35 -1.46,1.35 -0.25,0 -1.54,-0.05 -1.93,-1.74 -0.96,-3.64 -3.14,-12.36 -3.74,-15 -0.06,-0.2 -2.04,-4.18 -5.68,-4.18 -2.6,0 -3.1,2.25 -3.1,4.09 0,2.78 1.41,6.72 2.7,10.16 0.6,1.5 0.85,2.18 0.85,3.14 0,2.23 -1.6,4.07 -4.1,4.07 -4.73,0 -6.57,-7.21 -6.57,-7.67 0,-0.5 0.5,-0.5 0.61,-0.5 0.5,0 0.54,0.11 0.79,0.91 1.24,4.33 3.14,6.17 5.03,6.17 0.44,0 1.25,-0.05 1.25,-1.64 0,-1.2 -0.56,-2.64 -0.86,-3.39 -1.84,-4.94 -2.89,-8.02 -2.89,-10.45 0,-4.74 3.44,-5.99 6.14,-5.99 3.29,0 5.08,2.24 5.93,3.35 z"
           inkscape:connector-curvature="0"
           style="fill:#000000;stroke-width:0" /></g>    </g>
    <g
       id="g4502"
       transform="matrix(0.7283654,0,0,0.7283654,265.34856,696.23886)">
      <g
         id="g4504"
         transform="matrix(1.0629921,0,0,-1.0629921,-186.02362,789.27165)"
         xml:space="preserve"
         stroke-miterlimit="10.433"
         font-style="normal"
         font-variant="normal"
         font-weight="normal"
         font-stretch="normal"
         font-size-adjust="none"
         letter-spacing="normal"
         word-spacing="normal"
         style="font-style:normal;font-variant:normal;font-weight:normal;font-stretch:normal;letter-spacing:normal;word-spacing:normal;text-anchor:start;fill:none;stroke:#000000;stroke-linecap:butt;stroke-linejoin:miter;stroke-miterlimit:10.43299961;stroke-opacity:1;stroke-dasharray:none;stroke-dashoffset:0"><path
           d="m 479.74,425.18 0.01,0.04 0.01,0.03 0.01,0.06 0.02,0.05 0.01,0.06 0.01,0.05 0.02,0.04 0.01,0.05 0.01,0.04 0.01,0.04 0,0.04 0.01,0.04 0.01,0.04 0.01,0.03 0,0.03 0.01,0.03 0,0.03 0.01,0.03 0,0.03 0.01,0.05 0,0.06 0,0.05 0,0.05 0.01,0.05 0,0.03 0,0.03 0,0.03 0,0.03 c 0,0.91 -0.69,1.35 -1.44,1.35 -0.5,0 -1.3,-0.3 -1.75,-1.05 -0.1,-0.25 -0.5,-1.78 -0.69,-2.69 -0.36,-1.29 -0.7,-2.64 -1,-3.98 l -2.25,-8.97 c -0.19,-0.75 -2.33,-4.23 -5.62,-4.23 -2.54,0 -3.1,2.18 -3.1,4.03 0,2.29 0.86,5.39 2.55,9.76 0.8,2.05 1,2.6 1,3.6 0,2.23 -1.59,4.07 -4.09,4.07 -4.74,0 -6.58,-7.21 -6.58,-7.67 0,-0.5 0.5,-0.5 0.61,-0.5 0.5,0 0.54,0.11 0.79,0.91 1.35,4.69 3.33,6.17 5.03,6.17 0.4,0 1.25,0 1.25,-1.59 0,-1.25 -0.5,-2.53 -0.85,-3.49 -1.99,-5.28 -2.9,-8.12 -2.9,-10.47 0,-4.42 3.15,-5.92 6.08,-5.92 1.96,0 3.64,0.85 5.03,2.24 -0.64,-2.58 -1.23,-5.03 -3.23,-7.68 -1.3,-1.68 -3.19,-3.14 -5.48,-3.14 -0.69,0 -2.94,0.16 -3.79,2.1 0.8,0 1.46,0 2.14,0.61 0.5,0.43 1,1.09 1,2.03 0,1.55 -1.34,1.75 -1.84,1.75 -1.14,0 -2.8,-0.8 -2.8,-3.24 0,-2.5 2.21,-4.34 5.29,-4.34 5.14,0 10.26,4.55 11.67,10.17 z"
           id="path4506"
           inkscape:connector-curvature="0"
           style="fill:#000000;stroke-width:0" /></g>    </g>
    <g
       id="g4556"
       transform="matrix(0.7283654,0,0,0.7283654,292.5761,779.3425)">
      <g
         word-spacing="normal"
         letter-spacing="normal"
         font-size-adjust="none"
         font-stretch="normal"
         font-weight="normal"
         font-variant="normal"
         font-style="normal"
         stroke-miterlimit="10.433"
         xml:space="preserve"
         transform="matrix(1.0629921,0,0,-1.0629921,-186.02362,789.27165)"
         id="g4558"
         style="font-style:normal;font-variant:normal;font-weight:normal;font-stretch:normal;letter-spacing:normal;word-spacing:normal;text-anchor:start;fill:none;stroke:#000000;stroke-linecap:butt;stroke-linejoin:miter;stroke-miterlimit:10.43299961;stroke-opacity:1;stroke-dasharray:none;stroke-dashoffset:0"><path
           id="path4560"
           d="m 472.16,421.25 0.03,0.13 0.04,0.15 0.04,0.16 0.04,0.18 0.06,0.19 0.06,0.21 0.06,0.22 0.07,0.22 0.08,0.23 0.09,0.24 0.1,0.25 0.1,0.24 0.11,0.25 0.12,0.25 0.13,0.25 0.14,0.25 0.15,0.24 0.15,0.24 0.17,0.23 0.18,0.22 0.18,0.22 0.2,0.2 0.21,0.19 0.22,0.18 0.23,0.16 0.25,0.14 0.12,0.07 0.13,0.06 0.14,0.05 0.13,0.05 0.14,0.05 0.14,0.04 0.15,0.03 0.15,0.03 0.15,0.02 0.16,0.02 0.16,0.01 0.16,0 c 0.25,0 1.44,0 2.48,-0.64 -1.39,-0.25 -2.39,-1.5 -2.39,-2.69 0,-0.79 0.55,-1.75 1.89,-1.75 1.1,0 2.69,0.89 2.69,2.89 0,2.6 -2.94,3.28 -4.63,3.28 -2.89,0 -4.64,-2.64 -5.23,-3.78 -1.25,3.28 -3.94,3.78 -5.37,3.78 -5.19,0 -8.04,-6.42 -8.04,-7.67 0,-0.5 0.5,-0.5 0.61,-0.5 0.39,0 0.55,0.11 0.64,0.55 1.69,5.28 4.99,6.53 6.68,6.53 0.95,0 2.68,-0.44 2.68,-3.33 0,-1.54 -0.84,-4.89 -2.68,-11.86 -0.8,-3.09 -2.54,-5.18 -4.74,-5.18 -0.3,0 -1.44,0 -2.48,0.65 1.25,0.24 2.34,1.28 2.34,2.69 0,1.34 -1.09,1.73 -1.84,1.73 -1.5,0 -2.75,-1.29 -2.75,-2.89 0,-2.28 2.5,-3.28 4.68,-3.28 3.3,0 5.08,3.49 5.24,3.78 0.59,-1.84 2.39,-3.78 5.37,-3.78 5.14,0 7.99,6.42 7.99,7.67 0,0.5 -0.45,0.5 -0.61,0.5 -0.44,0 -0.55,-0.2 -0.64,-0.54 -1.64,-5.33 -5.03,-6.53 -6.63,-6.53 -1.95,0 -2.75,1.59 -2.75,3.29 0,1.1 0.3,2.19 0.86,4.38 z"
           inkscape:connector-curvature="0"
           style="fill:#000000;stroke-width:0" /></g>    </g>
    <g
       id="g4727"
       transform="matrix(0.7283654,0,0,0.7283654,-150.58356,726.20523)">
      <g
         word-spacing="normal"
         letter-spacing="normal"
         font-size-adjust="none"
         font-stretch="normal"
         font-weight="normal"
         font-variant="normal"
         font-style="normal"
         stroke-miterlimit="10.433"
         xml:space="preserve"
         transform="matrix(1.0629921,0,0,-1.0629921,-186.02362,789.27165)"
         id="g4729"
         style="font-style:normal;font-variant:normal;font-weight:normal;font-stretch:normal;letter-spacing:normal;word-spacing:normal;text-anchor:start;fill:none;stroke:#000000;stroke-linecap:butt;stroke-linejoin:miter;stroke-miterlimit:10.43299961;stroke-opacity:1;stroke-dasharray:none;stroke-dashoffset:0"><path
           id="path4731"
           d="m 399.96,426.12 v -16.14 c 0,-2.23 -0.55,-2.23 -3.88,-2.23 v -1.55 c 1.64,0.05 4.28,0.16 5.52,0.16 1.25,0 3.69,-0.11 5.53,-0.16 v 1.55 c -3.33,0 -3.88,0 -3.88,2.23 v 30.8 l -1.79,-0.3 c -0.21,0 -0.25,0.05 -0.46,0.14 -1.59,0.7 -3.64,0.7 -4.18,0.7 l -0.05,-1.09 c 0.45,0 1.8,0 3.19,-0.45 -0.44,-0.21 -1.24,-0.71 -1.24,-1.99 0,-0.9 0.39,-1.65 1.24,-1.95 v -8.17 H 389.3 v 5.64 c 0,4.62 3.78,6.92 7.47,6.92 l 0.05,1.09 c -5.22,0 -10.66,-2.79 -10.66,-7.96 v -5.69 h -3.94 v -1.55 h 3.94 v -16.14 c 0,-2.23 -0.55,-2.23 -3.89,-2.23 v -1.55 c 1.66,0.05 4.28,0.16 5.53,0.16 1.25,0 3.69,-0.11 5.53,-0.16 v 1.55 c -3.33,0 -3.89,0 -3.89,2.23 v 16.14 z"
           inkscape:connector-curvature="0"
           style="fill:#000000;stroke-width:0" /><path
           id="path4733"
           d="m 428.08,410.14 v -4.49 l 7.17,0.55 v 1.55 c -3.48,0 -3.89,0.34 -3.89,2.78 v 17.68 l -7.32,-0.54 v -1.55 c 3.5,0 3.89,-0.34 3.89,-2.78 v -8.88 c 0,-4.32 -2.39,-7.71 -6.04,-7.71 -4.17,0 -4.37,2.34 -4.37,4.93 v 16.53 l -7.33,-0.54 v -1.55 c 3.89,0 3.89,-0.14 3.89,-4.58 v -7.47 c 0,-3.89 0,-8.42 7.56,-8.42 2.8,0 4.99,1.39 6.44,4.49 z"
           inkscape:connector-curvature="0"
           style="fill:#000000;stroke-width:0" /><path
           id="path4735"
           d="m 445.13,428.21 -6.97,-0.54 v -1.55 c 3.23,0 3.69,-0.3 3.69,-2.73 v -13.41 c 0,-2.23 -0.55,-2.23 -3.89,-2.23 v -1.55 c 1.59,0.05 4.28,0.16 5.48,0.16 1.75,0 3.49,-0.11 5.19,-0.16 v 1.55 c -3.3,0 -3.5,0.25 -3.5,2.18 z"
           inkscape:connector-curvature="0"
           style="fill:#000000;stroke-width:0" /><path
           id="path4737"
           d="m 445.33,436.89 0,0.14 -0.01,0.15 -0.02,0.14 -0.02,0.14 -0.04,0.13 -0.03,0.13 -0.05,0.13 -0.05,0.12 -0.05,0.12 -0.06,0.12 -0.07,0.11 -0.07,0.1 -0.07,0.1 -0.08,0.1 -0.09,0.1 -0.09,0.08 -0.09,0.09 -0.1,0.08 -0.1,0.07 -0.1,0.07 -0.11,0.07 -0.11,0.06 -0.11,0.05 -0.12,0.05 -0.12,0.04 -0.12,0.04 -0.12,0.03 -0.13,0.03 -0.12,0.02 -0.13,0.01 -0.13,0.01 -0.13,0.01 c -1.55,0 -2.64,-1.35 -2.64,-2.64 0,-1.35 1.09,-2.64 2.64,-2.64 1.39,0 2.64,1.04 2.64,2.64 z"
           inkscape:connector-curvature="0"
           style="fill:#000000;stroke-width:0" /><path
           id="path4739"
           d="m 469.05,408.93 v -3.28 l 7.31,0.55 v 1.55 c -3.48,0 -3.87,0.34 -3.87,2.78 v 30.25 l -7.17,-0.55 v -1.55 c 3.48,0 3.87,-0.34 3.87,-2.79 v -10.75 c -1.44,1.78 -3.58,3.07 -6.28,3.07 l 0.2,-1.09 c 1.75,0 3.85,-0.75 5.39,-2.98 0.55,-0.85 0.55,-0.96 0.55,-1.85 h 0 v -10.22 c 0,-0.89 0,-1 -0.55,-1.84 -1.5,-2.39 -3.75,-3.48 -5.89,-3.48 -2.23,0 -4.03,1.29 -5.22,3.18 -1.29,2.05 -1.45,4.89 -1.45,6.93 0,1.84 0.1,4.84 1.55,7.07 1.05,1.55 2.94,3.19 5.62,3.19 l -0.2,1.09 c -5.87,0 -11.11,-4.87 -11.11,-11.29 0,-6.33 4.89,-11.27 10.56,-11.27 3.19,0 5.44,1.69 6.69,3.28 z"
           inkscape:connector-curvature="0"
           style="fill:#000000;stroke-width:0" /><path
           id="path4741"
           d="m 499.76,423.34 v -13.36 c 0,-2.23 -0.55,-2.23 -3.89,-2.23 v -1.55 c 1.75,0.05 4.28,0.16 5.62,0.16 1.3,0 3.89,-0.11 5.58,-0.16 v 1.55 c -3.33,0 -3.87,0 -3.87,2.23 v 9.17 c 0,5.19 3.53,7.97 6.71,7.97 3.14,0 3.69,-2.69 3.69,-5.53 v -11.61 c 0,-2.23 -0.55,-2.23 -3.89,-2.23 v -1.55 c 1.75,0.05 4.3,0.16 5.64,0.16 1.3,0 3.88,-0.11 5.58,-0.16 v 1.55 c -3.34,0 -3.89,0 -3.89,2.23 v 9.17 c 0,5.19 3.55,7.97 6.73,7.97 3.14,0 3.69,-2.69 3.69,-5.53 v -11.61 c 0,-2.23 -0.55,-2.23 -3.89,-2.23 v -1.55 c 1.73,0.05 4.28,0.16 5.63,0.16 1.29,0 3.89,-0.11 5.57,-0.16 v 1.55 c -2.57,0 -3.82,0 -3.87,1.5 v 9.51 c 0,4.28 0,5.83 -1.55,7.61 -0.7,0.86 -2.34,1.84 -5.23,1.84 -4.19,0 -6.38,-2.98 -7.22,-4.87 -0.7,4.33 -4.39,4.87 -6.63,4.87 -3.64,0 -5.98,-2.14 -7.37,-5.21 v 5.21 l -7.03,-0.54 v -1.55 c 3.48,0 3.89,-0.34 3.89,-2.78 z"
           inkscape:connector-curvature="0"
           style="fill:#000000;stroke-width:0" /><path
           id="path4743"
           d="m 559.26,416.86 -0.01,0.59 -0.05,0.59 -0.07,0.58 -0.09,0.57 -0.13,0.56 -0.15,0.55 -0.17,0.54 -0.2,0.53 -0.22,0.51 -0.25,0.5 -0.27,0.49 -0.28,0.47 -0.31,0.46 -0.33,0.44 -0.35,0.43 -0.36,0.4 -0.39,0.39 -0.4,0.37 -0.42,0.35 -0.43,0.32 -0.45,0.31 -0.46,0.28 -0.47,0.26 -0.49,0.24 -0.5,0.21 -0.51,0.18 -0.52,0.16 -0.53,0.13 -0.54,0.11 -0.55,0.07 -0.55,0.05 -0.56,0.01 -0.05,-1.09 c 2.19,0 4.33,-1.1 5.62,-3.24 1.3,-2.14 1.3,-5.03 1.3,-6.92 0,-1.8 0,-4.48 -1.09,-6.67 -1.1,-2.25 -3.28,-3.69 -5.78,-3.69 h 0 c -2.15,0 -4.33,1.05 -5.68,3.33 -1.25,2.2 -1.25,5.23 -1.25,7.03 0,1.94 0,4.63 1.19,6.83 1.36,2.28 3.69,3.33 5.69,3.33 l 0.05,1.09 c -6.22,0 -11.07,-5.42 -11.07,-11.65 0,-6.43 5.19,-11.21 11.02,-11.21 6.03,0 11.06,4.88 11.06,11.21 z"
           inkscape:connector-curvature="0"
           style="fill:#000000;stroke-width:0" /><path
           id="path4745"
           d="m 571.11,415.87 0.11,-0.02 0.13,-0.02 0.14,-0.03 0.16,-0.04 0.16,-0.04 0.18,-0.04 0.19,-0.05 0.2,-0.06 0.21,-0.06 0.21,-0.07 0.21,-0.08 0.22,-0.08 0.22,-0.1 0.22,-0.1 0.22,-0.11 0.22,-0.12 0.22,-0.14 0.21,-0.14 0.21,-0.15 0.19,-0.16 0.19,-0.18 0.18,-0.19 0.17,-0.2 0.16,-0.21 0.14,-0.22 0.07,-0.12 0.06,-0.12 0.06,-0.13 0.05,-0.12 0.05,-0.14 0.05,-0.13 0.04,-0.14 0.03,-0.14 0.04,-0.15 0.02,-0.15 0.02,-0.16 0.02,-0.15 0,-0.17 0.01,-0.16 c 0,-2.53 -1.75,-4.53 -5.63,-4.53 -4.19,0 -5.98,2.84 -6.94,7.07 -0.14,0.64 -0.18,0.85 -0.68,0.85 -0.66,0 -0.66,-0.35 -0.66,-1.25 v -6.58 c 0,-0.84 0,-1.19 0.55,-1.19 0.25,0 0.29,0.05 1.25,1 0.09,0.1 0.09,0.19 1,1.14 2.19,-2.09 4.43,-2.14 5.48,-2.14 5.72,0 8.02,3.35 8.02,6.92 0,2.64 -1.5,4.14 -2.1,4.74 -1.64,1.59 -3.59,2 -5.68,2.39 -2.79,0.55 -6.13,1.2 -6.13,4.09 0,1.74 1.3,3.78 5.58,3.78 5.48,0 5.73,-4.48 5.83,-6.03 0.06,-0.45 0.5,-0.45 0.61,-0.45 0.64,0 0.64,0.25 0.64,1.2 v 5.03 c 0,0.85 0,1.19 -0.55,1.19 -0.25,0 -0.34,0 -1,-0.59 -0.14,-0.21 -0.64,-0.64 -0.84,-0.8 -1.89,1.39 -3.94,1.39 -4.69,1.39 -6.08,0 -7.97,-3.33 -7.97,-6.12 0,-1.74 0.8,-3.14 2.14,-4.24 1.59,-1.29 3,-1.59 6.58,-2.28 z"
           inkscape:connector-curvature="0"
           style="fill:#000000;stroke-width:0" /><path
           id="path4747"
           d="m 589.05,426.12 h 7.13 v 1.55 h -7.13 v 9.17 h -1.25 c -0.04,-4.08 -1.54,-9.42 -6.42,-9.61 v -1.11 h 4.24 v -13.75 c 0,-6.12 4.62,-6.72 6.42,-6.72 3.53,0 4.94,3.53 4.94,6.72 v 2.84 h -1.25 v -2.73 c 0,-3.69 -1.5,-5.58 -3.35,-5.58 -3.33,0 -3.33,4.53 -3.33,5.38 z"
           inkscape:connector-curvature="0"
           style="fill:#000000;stroke-width:0" /><path
           id="path4749"
           d="m 608.56,440.78 -7.17,-0.55 v -1.55 c 3.48,0 3.89,-0.34 3.89,-2.79 v -25.91 c 0,-2.23 -0.55,-2.23 -3.89,-2.23 v -1.55 c 1.64,0.05 4.28,0.16 5.53,0.16 1.25,0 3.68,-0.11 5.53,-0.16 v 1.55 c -3.35,0 -3.89,0 -3.89,2.23 z"
           inkscape:connector-curvature="0"
           style="fill:#000000;stroke-width:0" /><path
           id="path4751"
           d="m 634.22,422.93 0.06,0.15 0.06,0.14 0.07,0.14 0.06,0.13 0.07,0.12 0.07,0.13 0.07,0.12 0.07,0.11 0.15,0.22 0.16,0.2 0.15,0.19 0.17,0.18 0.16,0.16 0.17,0.14 0.16,0.14 0.17,0.12 0.17,0.11 0.17,0.1 0.17,0.09 0.17,0.09 0.17,0.07 0.17,0.06 0.16,0.05 0.16,0.05 0.16,0.04 0.15,0.03 0.14,0.03 0.15,0.02 0.13,0.02 0.13,0.02 0.13,0.01 0.11,0 0.11,0.01 0.1,0 0.09,0 0.07,0 v 1.55 c -1.15,-0.1 -2.59,-0.14 -3.73,-0.14 -0.9,0 -3.25,0.09 -4.34,0.14 v -1.55 c 1.54,-0.05 2.34,-0.89 2.34,-2.14 0,-0.5 -0.05,-0.59 -0.3,-1.19 l -5.03,-12.26 -5.53,13.4 c -0.2,0.5 -0.29,0.71 -0.29,0.91 0,1.28 1.84,1.28 2.78,1.28 v 1.55 c -1.28,-0.05 -4.58,-0.14 -5.43,-0.14 -1.34,0 -3.34,0.04 -4.82,0.14 v -1.55 c 2.39,0 3.32,0 4.03,-1.73 L 626,406.2 c -0.25,-0.64 -0.94,-2.3 -1.25,-2.94 -1.1,-2.73 -2.49,-6.19 -5.68,-6.19 -0.25,0 -1.39,0 -2.34,0.91 1.55,0.2 1.94,1.3 1.94,2.09 0,1.3 -0.94,2.1 -2.08,2.1 -1,0 -2.09,-0.66 -2.09,-2.14 0,-2.25 2.09,-4.05 4.57,-4.05 3.15,0 5.19,2.84 6.38,5.69 z"
           inkscape:connector-curvature="0"
           style="fill:#000000;stroke-width:0" /><path
           id="path4753"
           d="m 397.47,350.22 0.03,-0.18 0.02,-0.19 0.04,-0.19 0.04,-0.18 0.05,-0.19 0.06,-0.18 0.06,-0.18 0.07,-0.18 0.07,-0.18 0.08,-0.17 0.09,-0.17 0.1,-0.17 0.1,-0.16 0.1,-0.16 0.12,-0.15 0.12,-0.15 0.12,-0.14 0.13,-0.14 0.14,-0.13 0.15,-0.12 0.15,-0.11 0.15,-0.11 0.17,-0.1 0.17,-0.09 0.17,-0.08 0.18,-0.07 0.19,-0.06 0.19,-0.05 0.2,-0.04 0.21,-0.03 0.21,-0.02 0.21,-0.01 c 1.03,0 4.08,0.71 4.08,4.74 v 2.78 h -1.25 v -2.78 c 0,-2.89 -1.23,-3.19 -1.8,-3.19 -1.64,0 -1.84,2.24 -1.84,2.49 v 9.96 c 0,2.1 0,4.04 -1.78,5.88 -1.95,1.94 -4.44,2.73 -6.83,2.73 -4.09,0 -7.53,-2.32 -7.53,-5.62 0,-1.49 1,-2.34 2.3,-2.34 1.39,0 2.29,1 2.29,2.29 0,0.6 -0.25,2.24 -2.54,2.3 1.34,1.73 3.78,2.28 5.37,2.28 2.46,0 5.28,-1.94 5.28,-6.37 v -1.85 -1.05 -4.98 c 0,-4.73 -3.57,-6.42 -5.82,-6.42 -2.44,0 -4.49,1.75 -4.49,4.23 0,2.74 2.09,6.88 10.31,7.17 h 0 v 1.05 c -2.53,-0.14 -6.01,-0.3 -9.15,-1.8 -3.74,-1.68 -4.99,-4.28 -4.99,-6.46 0,-4.04 4.83,-5.29 7.97,-5.29 3.3,0 5.58,1.99 6.53,4.33 z"
           inkscape:connector-curvature="0"
           style="fill:#000000;stroke-width:0" /><path
           id="path4755"
           d="m 414.46,366.36 h 7.13 v 1.55 h -7.13 v 9.17 h -1.25 c -0.05,-4.08 -1.55,-9.42 -6.42,-9.61 v -1.11 h 4.23 v -13.75 c 0,-6.12 4.63,-6.72 6.43,-6.72 3.53,0 4.93,3.54 4.93,6.72 v 2.85 h -1.25 v -2.74 c 0,-3.68 -1.5,-5.58 -3.34,-5.58 -3.33,0 -3.33,4.54 -3.33,5.38 z"
           inkscape:connector-curvature="0"
           style="fill:#000000;stroke-width:0" /><path
           id="path4757"
           d="m 450.03,362.99 v 5.47 l -6.92,-0.55 v -1.55 c 3.48,0 3.89,-0.34 3.89,-2.78 v -13.36 c 0,-2.23 -0.55,-2.23 -3.89,-2.23 v -1.55 c 1.95,0.05 4.28,0.16 5.68,0.16 1.99,0 4.33,0 6.33,-0.16 v 1.55 h -1.05 c -3.68,0 -3.79,0.55 -3.79,2.34 V 358 c 0,4.93 2.09,9.36 5.89,9.36 0.34,0 0.44,0 0.54,-0.04 -0.15,-0.05 -1.15,-0.64 -1.15,-1.94 0,-1.41 1.05,-2.14 2.15,-2.14 0.9,0 2.15,0.59 2.15,2.19 0,1.59 -1.55,3.03 -3.69,3.03 -3.64,0 -5.44,-3.33 -6.14,-5.47 z"
           inkscape:connector-curvature="0"
           style="fill:#000000;stroke-width:0" /><path
           id="path4759"
           d="m 466.8,357.96 0.05,1.04 c 0.3,7.43 4.49,8.66 6.19,8.66 5.12,0 5.62,-6.72 5.62,-8.66 h -11.81 l -0.05,-1.04 h 13.91 c 1.09,0 1.24,0 1.24,1.04 0,4.93 -2.69,9.75 -8.91,9.75 -5.78,0 -10.38,-5.12 -10.38,-11.36 0,-6.67 5.24,-11.5 10.97,-11.5 6.08,0 8.32,5.54 8.32,6.47 0,0.5 -0.4,0.61 -0.65,0.61 -0.45,0 -0.54,-0.29 -0.65,-0.7 -1.74,-5.13 -6.22,-5.13 -6.72,-5.13 -2.5,0 -4.48,1.49 -5.63,3.33 -1.5,2.39 -1.5,5.69 -1.5,7.49 z"
           inkscape:connector-curvature="0"
           style="fill:#000000;stroke-width:0" /><path
           id="path4761"
           d="m 493.71,356.11 0.11,-0.02 0.13,-0.02 0.14,-0.03 0.16,-0.04 0.17,-0.03 0.18,-0.05 0.19,-0.05 0.19,-0.06 0.21,-0.06 0.21,-0.07 0.21,-0.08 0.22,-0.08 0.22,-0.1 0.23,-0.1 0.22,-0.11 0.21,-0.12 0.22,-0.13 0.21,-0.15 0.21,-0.15 0.2,-0.16 0.19,-0.18 0.18,-0.18 0.16,-0.2 0.16,-0.22 0.14,-0.22 0.07,-0.12 0.06,-0.12 0.06,-0.12 0.06,-0.13 0.04,-0.13 0.05,-0.14 0.04,-0.14 0.04,-0.14 0.03,-0.15 0.02,-0.15 0.02,-0.15 0.02,-0.16 0.01,-0.16 0,-0.17 c 0,-2.53 -1.75,-4.53 -5.63,-4.53 -4.18,0 -5.98,2.84 -6.93,7.08 -0.14,0.64 -0.19,0.84 -0.69,0.84 -0.66,0 -0.66,-0.34 -0.66,-1.25 v -6.58 c 0,-0.84 0,-1.19 0.55,-1.19 0.25,0 0.3,0.05 1.25,1 0.09,0.1 0.09,0.19 1,1.15 2.19,-2.1 4.44,-2.15 5.48,-2.15 5.72,0 8.02,3.35 8.02,6.93 0,2.64 -1.5,4.14 -2.09,4.73 -1.65,1.59 -3.6,2 -5.69,2.39 -2.78,0.55 -6.13,1.2 -6.13,4.1 0,1.73 1.3,3.78 5.58,3.78 5.49,0 5.74,-4.49 5.83,-6.03 0.06,-0.46 0.5,-0.46 0.61,-0.46 0.64,0 0.64,0.25 0.64,1.21 v 5.03 c 0,0.84 0,1.18 -0.55,1.18 -0.25,0 -0.34,0 -1,-0.59 -0.14,-0.2 -0.64,-0.64 -0.84,-0.8 -1.89,1.39 -3.94,1.39 -4.69,1.39 -6.08,0 -7.97,-3.32 -7.97,-6.12 0,-1.74 0.8,-3.14 2.14,-4.24 1.6,-1.29 3,-1.59 6.58,-2.28 z"
           inkscape:connector-curvature="0"
           style="fill:#000000;stroke-width:0" /><path
           id="path4763"
           d="m 511.66,366.36 h 7.12 v 1.55 h -7.12 v 9.17 h -1.25 c -0.05,-4.08 -1.55,-9.42 -6.43,-9.61 v -1.11 h 4.24 v -13.75 c 0,-6.12 4.62,-6.72 6.42,-6.72 3.53,0 4.94,3.54 4.94,6.72 v 2.85 h -1.25 v -2.74 c 0,-3.68 -1.5,-5.58 -3.35,-5.58 -3.32,0 -3.32,4.54 -3.32,5.38 z"
           inkscape:connector-curvature="0"
           style="fill:#000000;stroke-width:0" /></g>    </g>
    <path
       inkscape:connector-curvature="0"
       id="path4810"
       d="m 411.48963,976.59414 41.41626,0"
       style="fill:none;stroke:#000000;stroke-width:1px;stroke-linecap:butt;stroke-linejoin:miter;stroke-opacity:1;marker-mid:none;marker-end:url(#Arrow1Lend)" />
    <path
       inkscape:connector-curvature="0"
       id="path4814"
       d="m 477.03027,1013.2861 0,-56.21132"
       style="fill:none;stroke:#000000;stroke-width:1.35722828px;stroke-linecap:butt;stroke-linejoin:miter;stroke-opacity:1;marker-mid:none;marker-end:url(#Arrow1Lend)" />
    <path
       style="fill:none;stroke:#000000;stroke-width:1.35722828px;stroke-linecap:butt;stroke-linejoin:miter;stroke-opacity:1;marker-mid:none;marker-end:url(#Arrow1Lend)"
       d="m 477.51862,1012.6544 56.21132,0"
       id="path4816"
       inkscape:connector-curvature="0" />
  </g>
</svg>
